<mxfile host="app.diagrams.net" agent="Mozilla/5.0 (Windows NT 10.0; Win64; x64) AppleWebKit/537.36 (KHTML, like Gecko) Chrome/129.0.0.0 Safari/537.36" version="24.7.16">
  <diagram name="Page-1" id="UYfyC8SDhT4e4NJZCZIQ">
    <mxGraphModel dx="2163" dy="739" grid="1" gridSize="10" guides="1" tooltips="1" connect="1" arrows="1" fold="1" page="1" pageScale="1" pageWidth="850" pageHeight="1100" math="0" shadow="0">
      <root>
        <mxCell id="0" />
        <mxCell id="1" parent="0" />
        <mxCell id="Zqm9SwYbZIe47wMkfVyY-1" value="" style="edgeStyle=orthogonalEdgeStyle;rounded=0;orthogonalLoop=1;jettySize=auto;html=1;startArrow=none;startFill=0;endArrow=none;endFill=0;" parent="1" source="Zqm9SwYbZIe47wMkfVyY-2" target="Zqm9SwYbZIe47wMkfVyY-3" edge="1">
          <mxGeometry relative="1" as="geometry" />
        </mxCell>
        <mxCell id="Zqm9SwYbZIe47wMkfVyY-2" value="&lt;font style=&quot;vertical-align: inherit;&quot;&gt;&lt;font style=&quot;vertical-align: inherit;&quot;&gt;&lt;font style=&quot;vertical-align: inherit;&quot;&gt;&lt;font style=&quot;vertical-align: inherit;&quot;&gt;Barista&lt;/font&gt;&lt;/font&gt;&lt;/font&gt;&lt;/font&gt;" style="whiteSpace=wrap;html=1;align=center;" parent="1" vertex="1">
          <mxGeometry x="-294" y="280" width="100" height="40" as="geometry" />
        </mxCell>
        <mxCell id="Zqm9SwYbZIe47wMkfVyY-3" value="Id_barista" style="ellipse;whiteSpace=wrap;html=1;align=center;" parent="1" vertex="1">
          <mxGeometry x="-394" y="180" width="100" height="40" as="geometry" />
        </mxCell>
        <mxCell id="Zqm9SwYbZIe47wMkfVyY-4" value="Nama_barista" style="ellipse;whiteSpace=wrap;html=1;align=center;" parent="1" vertex="1">
          <mxGeometry x="-224" y="180" width="100" height="40" as="geometry" />
        </mxCell>
        <mxCell id="Zqm9SwYbZIe47wMkfVyY-5" value="" style="edgeStyle=orthogonalEdgeStyle;rounded=0;orthogonalLoop=1;jettySize=auto;html=1;exitX=1;exitY=0;exitDx=0;exitDy=0;endArrow=none;endFill=0;" parent="1" source="Zqm9SwYbZIe47wMkfVyY-2" target="Zqm9SwYbZIe47wMkfVyY-4" edge="1">
          <mxGeometry relative="1" as="geometry">
            <mxPoint x="-174" y="300" as="sourcePoint" />
            <mxPoint x="-134" y="280" as="targetPoint" />
            <Array as="points">
              <mxPoint x="-164" y="281" />
              <mxPoint x="-154" y="281" />
            </Array>
          </mxGeometry>
        </mxCell>
        <mxCell id="Zqm9SwYbZIe47wMkfVyY-7" value="&lt;font style=&quot;vertical-align: inherit;&quot;&gt;&lt;font style=&quot;vertical-align: inherit;&quot;&gt;&lt;u&gt;No_barista&lt;/u&gt;&lt;/font&gt;&lt;/font&gt;" style="ellipse;whiteSpace=wrap;html=1;align=center;" parent="1" vertex="1">
          <mxGeometry x="-424" y="330" width="100" height="40" as="geometry" />
        </mxCell>
        <mxCell id="Zqm9SwYbZIe47wMkfVyY-8" value="" style="edgeStyle=orthogonalEdgeStyle;rounded=0;orthogonalLoop=1;jettySize=auto;html=1;exitX=0.5;exitY=1;exitDx=0;exitDy=0;endArrow=none;endFill=0;" parent="1" source="Zqm9SwYbZIe47wMkfVyY-2" edge="1">
          <mxGeometry relative="1" as="geometry">
            <mxPoint x="-244" y="390" as="sourcePoint" />
            <mxPoint x="-244" y="400" as="targetPoint" />
          </mxGeometry>
        </mxCell>
        <mxCell id="Zqm9SwYbZIe47wMkfVyY-9" value="&lt;font style=&quot;vertical-align: inherit;&quot;&gt;&lt;font style=&quot;vertical-align: inherit;&quot;&gt;Melayani&lt;/font&gt;&lt;/font&gt;" style="shape=rhombus;perimeter=rhombusPerimeter;whiteSpace=wrap;html=1;align=center;" parent="1" vertex="1">
          <mxGeometry x="-304" y="400" width="120" height="60" as="geometry" />
        </mxCell>
        <mxCell id="Zqm9SwYbZIe47wMkfVyY-10" value="" style="edgeStyle=orthogonalEdgeStyle;rounded=0;orthogonalLoop=1;jettySize=auto;html=1;exitX=0.5;exitY=1;exitDx=0;exitDy=0;endArrow=none;endFill=0;" parent="1" source="Zqm9SwYbZIe47wMkfVyY-9" edge="1">
          <mxGeometry relative="1" as="geometry">
            <mxPoint x="-244" y="500" as="sourcePoint" />
            <mxPoint x="-244" y="550" as="targetPoint" />
          </mxGeometry>
        </mxCell>
        <mxCell id="Zqm9SwYbZIe47wMkfVyY-11" value="&lt;font style=&quot;vertical-align: inherit;&quot;&gt;&lt;font style=&quot;vertical-align: inherit;&quot;&gt;Pelanggan&lt;/font&gt;&lt;/font&gt;" style="whiteSpace=wrap;html=1;align=center;" parent="1" vertex="1">
          <mxGeometry x="-294" y="550" width="100" height="40" as="geometry" />
        </mxCell>
        <mxCell id="Zqm9SwYbZIe47wMkfVyY-12" value="" style="edgeStyle=orthogonalEdgeStyle;rounded=0;orthogonalLoop=1;jettySize=auto;html=1;exitX=0.5;exitY=1;exitDx=0;exitDy=0;entryX=1;entryY=0.5;entryDx=0;entryDy=0;endArrow=none;endFill=0;" parent="1" target="Zqm9SwYbZIe47wMkfVyY-13" edge="1">
          <mxGeometry relative="1" as="geometry">
            <mxPoint x="-234" y="590" as="sourcePoint" />
            <mxPoint x="-334" y="630" as="targetPoint" />
          </mxGeometry>
        </mxCell>
        <mxCell id="Zqm9SwYbZIe47wMkfVyY-13" value="&lt;font style=&quot;vertical-align: inherit;&quot;&gt;&lt;font style=&quot;vertical-align: inherit;&quot;&gt;Nama_pelanggan&lt;/font&gt;&lt;/font&gt;" style="ellipse;whiteSpace=wrap;html=1;align=center;" parent="1" vertex="1">
          <mxGeometry x="-474" y="580" width="120" height="40" as="geometry" />
        </mxCell>
        <mxCell id="Zqm9SwYbZIe47wMkfVyY-14" value="" style="edgeStyle=orthogonalEdgeStyle;rounded=0;orthogonalLoop=1;jettySize=auto;html=1;exitX=0.5;exitY=1;exitDx=0;exitDy=0;endArrow=none;endFill=0;" parent="1" source="Zqm9SwYbZIe47wMkfVyY-11" target="Zqm9SwYbZIe47wMkfVyY-15" edge="1">
          <mxGeometry relative="1" as="geometry">
            <mxPoint x="-164" y="560" as="sourcePoint" />
            <mxPoint x="-144" y="540" as="targetPoint" />
            <Array as="points">
              <mxPoint x="-244" y="670" />
            </Array>
          </mxGeometry>
        </mxCell>
        <mxCell id="Zqm9SwYbZIe47wMkfVyY-15" value="&lt;font style=&quot;vertical-align: inherit;&quot;&gt;&lt;font style=&quot;vertical-align: inherit;&quot;&gt;No_pesanan&lt;/font&gt;&lt;/font&gt;" style="ellipse;whiteSpace=wrap;html=1;align=center;" parent="1" vertex="1">
          <mxGeometry x="-384" y="650" width="100" height="40" as="geometry" />
        </mxCell>
        <mxCell id="Zqm9SwYbZIe47wMkfVyY-16" value="" style="edgeStyle=orthogonalEdgeStyle;rounded=0;orthogonalLoop=1;jettySize=auto;html=1;exitX=0;exitY=0.5;exitDx=0;exitDy=0;endArrow=none;endFill=0;" parent="1" source="Zqm9SwYbZIe47wMkfVyY-11" target="Zqm9SwYbZIe47wMkfVyY-17" edge="1">
          <mxGeometry relative="1" as="geometry">
            <mxPoint x="-364" y="540" as="sourcePoint" />
            <mxPoint x="-344" y="520" as="targetPoint" />
            <Array as="points">
              <mxPoint x="-294" y="540" />
              <mxPoint x="-333" y="540" />
            </Array>
          </mxGeometry>
        </mxCell>
        <mxCell id="Zqm9SwYbZIe47wMkfVyY-17" value="&lt;font style=&quot;vertical-align: inherit;&quot;&gt;&lt;font style=&quot;vertical-align: inherit;&quot;&gt;&lt;u&gt;No_telp&lt;/u&gt;&lt;/font&gt;&lt;/font&gt;" style="ellipse;whiteSpace=wrap;html=1;align=center;" parent="1" vertex="1">
          <mxGeometry x="-454" y="500" width="100" height="40" as="geometry" />
        </mxCell>
        <mxCell id="Zqm9SwYbZIe47wMkfVyY-19" value="" style="edgeStyle=orthogonalEdgeStyle;rounded=0;orthogonalLoop=1;jettySize=auto;html=1;exitX=1;exitY=0.25;exitDx=0;exitDy=0;endArrow=none;endFill=0;" parent="1" source="Zqm9SwYbZIe47wMkfVyY-11" edge="1">
          <mxGeometry relative="1" as="geometry">
            <mxPoint x="-134" y="560" as="sourcePoint" />
            <mxPoint x="-54" y="560" as="targetPoint" />
            <Array as="points" />
          </mxGeometry>
        </mxCell>
        <mxCell id="Zqm9SwYbZIe47wMkfVyY-20" value="" style="edgeStyle=orthogonalEdgeStyle;rounded=0;orthogonalLoop=1;jettySize=auto;html=1;exitX=1;exitY=0.5;exitDx=0;exitDy=0;endArrow=none;endFill=0;" parent="1" target="Zqm9SwYbZIe47wMkfVyY-21" edge="1">
          <mxGeometry relative="1" as="geometry">
            <mxPoint x="66" y="560" as="sourcePoint" />
            <mxPoint x="186" y="560" as="targetPoint" />
            <Array as="points">
              <mxPoint x="157" y="560" />
            </Array>
          </mxGeometry>
        </mxCell>
        <mxCell id="Zqm9SwYbZIe47wMkfVyY-21" value="&lt;font style=&quot;vertical-align: inherit;&quot;&gt;&lt;font style=&quot;vertical-align: inherit;&quot;&gt;Menu&lt;/font&gt;&lt;/font&gt;" style="whiteSpace=wrap;html=1;align=center;" parent="1" vertex="1">
          <mxGeometry x="176" y="540" width="100" height="40" as="geometry" />
        </mxCell>
        <mxCell id="Zqm9SwYbZIe47wMkfVyY-22" value="" style="edgeStyle=orthogonalEdgeStyle;rounded=0;orthogonalLoop=1;jettySize=auto;html=1;exitX=0.1;exitY=1.045;exitDx=0;exitDy=0;exitPerimeter=0;entryX=0.5;entryY=0;entryDx=0;entryDy=0;endArrow=none;endFill=0;" parent="1" source="Zqm9SwYbZIe47wMkfVyY-21" target="Zqm9SwYbZIe47wMkfVyY-23" edge="1">
          <mxGeometry relative="1" as="geometry">
            <mxPoint x="186" y="630" as="sourcePoint" />
            <mxPoint x="186" y="620" as="targetPoint" />
          </mxGeometry>
        </mxCell>
        <mxCell id="Zqm9SwYbZIe47wMkfVyY-23" value="&lt;font style=&quot;vertical-align: inherit;&quot;&gt;&lt;font style=&quot;vertical-align: inherit;&quot;&gt;Nama_menu&lt;/font&gt;&lt;/font&gt;" style="ellipse;whiteSpace=wrap;html=1;align=center;" parent="1" vertex="1">
          <mxGeometry x="106" y="620" width="100" height="40" as="geometry" />
        </mxCell>
        <mxCell id="Zqm9SwYbZIe47wMkfVyY-24" value="&lt;font style=&quot;vertical-align: inherit;&quot;&gt;&lt;font style=&quot;vertical-align: inherit;&quot;&gt;Harga_menu&lt;/font&gt;&lt;/font&gt;" style="ellipse;whiteSpace=wrap;html=1;align=center;" parent="1" vertex="1">
          <mxGeometry x="226" y="640" width="100" height="40" as="geometry" />
        </mxCell>
        <mxCell id="Zqm9SwYbZIe47wMkfVyY-25" value="" style="edgeStyle=orthogonalEdgeStyle;rounded=0;orthogonalLoop=1;jettySize=auto;html=1;exitX=0.75;exitY=1;exitDx=0;exitDy=0;entryX=0.5;entryY=0;entryDx=0;entryDy=0;endArrow=none;endFill=0;" parent="1" source="Zqm9SwYbZIe47wMkfVyY-21" target="Zqm9SwYbZIe47wMkfVyY-24" edge="1">
          <mxGeometry relative="1" as="geometry">
            <mxPoint x="266" y="610" as="sourcePoint" />
            <mxPoint x="266" y="580" as="targetPoint" />
            <Array as="points">
              <mxPoint x="251" y="610" />
              <mxPoint x="276" y="610" />
            </Array>
          </mxGeometry>
        </mxCell>
        <mxCell id="Zqm9SwYbZIe47wMkfVyY-26" value="" style="edgeStyle=orthogonalEdgeStyle;rounded=0;orthogonalLoop=1;jettySize=auto;html=1;exitX=0.92;exitY=-0.018;exitDx=0;exitDy=0;exitPerimeter=0;endArrow=none;endFill=0;" parent="1" source="Zqm9SwYbZIe47wMkfVyY-11" edge="1">
          <mxGeometry relative="1" as="geometry">
            <mxPoint x="-200" y="540" as="sourcePoint" />
            <mxPoint x="-164" y="490" as="targetPoint" />
            <Array as="points">
              <mxPoint x="-200" y="549" />
              <mxPoint x="-200" y="521" />
              <mxPoint x="-164" y="521" />
            </Array>
          </mxGeometry>
        </mxCell>
        <mxCell id="Zqm9SwYbZIe47wMkfVyY-27" value="&lt;font style=&quot;vertical-align: inherit;&quot;&gt;&lt;font style=&quot;vertical-align: inherit;&quot;&gt;Id_barista&lt;/font&gt;&lt;/font&gt;" style="ellipse;whiteSpace=wrap;html=1;align=center;" parent="1" vertex="1">
          <mxGeometry x="-164" y="470" width="100" height="40" as="geometry" />
        </mxCell>
        <mxCell id="Zqm9SwYbZIe47wMkfVyY-30" value="Jumlah_menu" style="ellipse;whiteSpace=wrap;html=1;align=center;" parent="1" vertex="1">
          <mxGeometry x="316" y="550" width="100" height="40" as="geometry" />
        </mxCell>
        <mxCell id="Zqm9SwYbZIe47wMkfVyY-31" value="" style="endArrow=none;html=1;rounded=0;exitX=1;exitY=0.5;exitDx=0;exitDy=0;entryX=0;entryY=0.5;entryDx=0;entryDy=0;endFill=0;" parent="1" source="Zqm9SwYbZIe47wMkfVyY-21" target="Zqm9SwYbZIe47wMkfVyY-30" edge="1">
          <mxGeometry width="50" height="50" relative="1" as="geometry">
            <mxPoint x="26" y="460" as="sourcePoint" />
            <mxPoint x="76" y="410" as="targetPoint" />
          </mxGeometry>
        </mxCell>
        <mxCell id="Zqm9SwYbZIe47wMkfVyY-34" value="" style="endArrow=none;html=1;rounded=0;exitX=0;exitY=0.75;exitDx=0;exitDy=0;endFill=0;" parent="1" source="Zqm9SwYbZIe47wMkfVyY-2" edge="1">
          <mxGeometry width="50" height="50" relative="1" as="geometry">
            <mxPoint x="26" y="460" as="sourcePoint" />
            <mxPoint x="-334" y="340" as="targetPoint" />
          </mxGeometry>
        </mxCell>
        <mxCell id="Zqm9SwYbZIe47wMkfVyY-35" value="" style="endArrow=none;html=1;rounded=0;exitX=1;exitY=0.5;exitDx=0;exitDy=0;endFill=0;" parent="1" source="Zqm9SwYbZIe47wMkfVyY-2" target="Zqm9SwYbZIe47wMkfVyY-36" edge="1">
          <mxGeometry width="50" height="50" relative="1" as="geometry">
            <mxPoint x="26" y="460" as="sourcePoint" />
            <mxPoint x="-14" y="400" as="targetPoint" />
          </mxGeometry>
        </mxCell>
        <mxCell id="Zqm9SwYbZIe47wMkfVyY-36" value="Mengantar" style="shape=rhombus;perimeter=rhombusPerimeter;whiteSpace=wrap;html=1;align=center;" parent="1" vertex="1">
          <mxGeometry x="-54" y="270" width="120" height="60" as="geometry" />
        </mxCell>
        <mxCell id="Zqm9SwYbZIe47wMkfVyY-38" value="" style="endArrow=none;html=1;rounded=0;exitX=1;exitY=0.5;exitDx=0;exitDy=0;endFill=0;" parent="1" source="Zqm9SwYbZIe47wMkfVyY-36" target="Zqm9SwYbZIe47wMkfVyY-39" edge="1">
          <mxGeometry width="50" height="50" relative="1" as="geometry">
            <mxPoint x="26" y="460" as="sourcePoint" />
            <mxPoint x="176" y="300" as="targetPoint" />
          </mxGeometry>
        </mxCell>
        <mxCell id="Zqm9SwYbZIe47wMkfVyY-144" value="" style="edgeStyle=orthogonalEdgeStyle;rounded=0;orthogonalLoop=1;jettySize=auto;html=1;endArrow=none;endFill=0;" parent="1" source="Zqm9SwYbZIe47wMkfVyY-39" target="Zqm9SwYbZIe47wMkfVyY-36" edge="1">
          <mxGeometry relative="1" as="geometry" />
        </mxCell>
        <mxCell id="Zqm9SwYbZIe47wMkfVyY-39" value="Meja" style="whiteSpace=wrap;html=1;align=center;" parent="1" vertex="1">
          <mxGeometry x="176" y="280" width="100" height="40" as="geometry" />
        </mxCell>
        <mxCell id="Zqm9SwYbZIe47wMkfVyY-40" value="No_meja" style="ellipse;whiteSpace=wrap;html=1;align=center;" parent="1" vertex="1">
          <mxGeometry x="86" y="200" width="100" height="40" as="geometry" />
        </mxCell>
        <mxCell id="Zqm9SwYbZIe47wMkfVyY-41" value="" style="endArrow=none;html=1;rounded=0;exitX=0.25;exitY=0;exitDx=0;exitDy=0;entryX=0.5;entryY=1;entryDx=0;entryDy=0;endFill=0;" parent="1" source="Zqm9SwYbZIe47wMkfVyY-39" target="Zqm9SwYbZIe47wMkfVyY-40" edge="1">
          <mxGeometry width="50" height="50" relative="1" as="geometry">
            <mxPoint x="176" y="340" as="sourcePoint" />
            <mxPoint x="216" y="350" as="targetPoint" />
          </mxGeometry>
        </mxCell>
        <mxCell id="Zqm9SwYbZIe47wMkfVyY-43" value="&lt;u&gt;Id_meja&lt;/u&gt;" style="ellipse;whiteSpace=wrap;html=1;align=center;" parent="1" vertex="1">
          <mxGeometry x="276" y="200" width="100" height="40" as="geometry" />
        </mxCell>
        <mxCell id="Zqm9SwYbZIe47wMkfVyY-44" value="" style="endArrow=none;html=1;rounded=0;entryX=0;entryY=1;entryDx=0;entryDy=0;exitX=0.75;exitY=0;exitDx=0;exitDy=0;endFill=0;" parent="1" source="Zqm9SwYbZIe47wMkfVyY-39" target="Zqm9SwYbZIe47wMkfVyY-43" edge="1">
          <mxGeometry width="50" height="50" relative="1" as="geometry">
            <mxPoint x="26" y="460" as="sourcePoint" />
            <mxPoint x="76" y="410" as="targetPoint" />
          </mxGeometry>
        </mxCell>
        <mxCell id="Zqm9SwYbZIe47wMkfVyY-45" value="" style="endArrow=none;html=1;rounded=0;exitX=0.25;exitY=0;exitDx=0;exitDy=0;endFill=0;" parent="1" source="Zqm9SwYbZIe47wMkfVyY-21" target="Zqm9SwYbZIe47wMkfVyY-46" edge="1">
          <mxGeometry width="50" height="50" relative="1" as="geometry">
            <mxPoint x="26" y="460" as="sourcePoint" />
            <mxPoint x="136" y="510" as="targetPoint" />
          </mxGeometry>
        </mxCell>
        <mxCell id="Zqm9SwYbZIe47wMkfVyY-46" value="&lt;u&gt;Id_menu&lt;/u&gt;" style="ellipse;whiteSpace=wrap;html=1;align=center;" parent="1" vertex="1">
          <mxGeometry x="66" y="480" width="100" height="40" as="geometry" />
        </mxCell>
        <mxCell id="Zqm9SwYbZIe47wMkfVyY-47" value="" style="endArrow=none;html=1;rounded=0;exitX=0.5;exitY=0;exitDx=0;exitDy=0;entryX=0.5;entryY=1;entryDx=0;entryDy=0;endFill=0;" parent="1" source="Zqm9SwYbZIe47wMkfVyY-21" edge="1">
          <mxGeometry width="50" height="50" relative="1" as="geometry">
            <mxPoint x="16" y="450" as="sourcePoint" />
            <mxPoint x="226" y="460" as="targetPoint" />
          </mxGeometry>
        </mxCell>
        <mxCell id="Zqm9SwYbZIe47wMkfVyY-50" value="" style="endArrow=none;html=1;rounded=0;entryX=0.5;entryY=1;entryDx=0;entryDy=0;exitX=0.5;exitY=0;exitDx=0;exitDy=0;endFill=0;" parent="1" target="Zqm9SwYbZIe47wMkfVyY-39" edge="1">
          <mxGeometry width="50" height="50" relative="1" as="geometry">
            <mxPoint x="226" y="400" as="sourcePoint" />
            <mxPoint x="66" y="400" as="targetPoint" />
          </mxGeometry>
        </mxCell>
        <mxCell id="Zqm9SwYbZIe47wMkfVyY-51" value="Transaksi" style="rounded=1;arcSize=10;whiteSpace=wrap;html=1;align=center;" parent="1" vertex="1">
          <mxGeometry x="-49" y="740" width="100" height="40" as="geometry" />
        </mxCell>
        <mxCell id="Zqm9SwYbZIe47wMkfVyY-52" value="Nota_transaksi" style="ellipse;whiteSpace=wrap;html=1;align=center;" parent="1" vertex="1">
          <mxGeometry x="-169" y="870" width="120" height="50" as="geometry" />
        </mxCell>
        <mxCell id="Zqm9SwYbZIe47wMkfVyY-53" value="&lt;u&gt;No_transaksi&lt;/u&gt;" style="ellipse;whiteSpace=wrap;html=1;align=center;" parent="1" vertex="1">
          <mxGeometry x="76" y="810" width="100" height="40" as="geometry" />
        </mxCell>
        <mxCell id="Zqm9SwYbZIe47wMkfVyY-54" value="Id_transaksi" style="ellipse;whiteSpace=wrap;html=1;align=center;" parent="1" vertex="1">
          <mxGeometry x="-224" y="800" width="100" height="40" as="geometry" />
        </mxCell>
        <mxCell id="Zqm9SwYbZIe47wMkfVyY-55" value="" style="endArrow=none;html=1;rounded=0;exitX=0;exitY=0.5;exitDx=0;exitDy=0;entryX=1;entryY=0.5;entryDx=0;entryDy=0;endFill=0;" parent="1" source="Zqm9SwYbZIe47wMkfVyY-51" target="Zqm9SwYbZIe47wMkfVyY-54" edge="1">
          <mxGeometry width="50" height="50" relative="1" as="geometry">
            <mxPoint x="16" y="630" as="sourcePoint" />
            <mxPoint x="66" y="580" as="targetPoint" />
          </mxGeometry>
        </mxCell>
        <mxCell id="Zqm9SwYbZIe47wMkfVyY-56" value="" style="endArrow=none;html=1;rounded=0;exitX=0.411;exitY=1.045;exitDx=0;exitDy=0;entryX=0.5;entryY=0;entryDx=0;entryDy=0;exitPerimeter=0;endFill=0;" parent="1" source="Zqm9SwYbZIe47wMkfVyY-51" target="Zqm9SwYbZIe47wMkfVyY-52" edge="1">
          <mxGeometry width="50" height="50" relative="1" as="geometry">
            <mxPoint x="16" y="630" as="sourcePoint" />
            <mxPoint x="66" y="580" as="targetPoint" />
          </mxGeometry>
        </mxCell>
        <mxCell id="Zqm9SwYbZIe47wMkfVyY-57" value="" style="endArrow=none;html=1;rounded=0;exitX=1;exitY=0.75;exitDx=0;exitDy=0;entryX=0.5;entryY=0;entryDx=0;entryDy=0;endFill=0;" parent="1" source="Zqm9SwYbZIe47wMkfVyY-51" target="Zqm9SwYbZIe47wMkfVyY-53" edge="1">
          <mxGeometry width="50" height="50" relative="1" as="geometry">
            <mxPoint x="16" y="630" as="sourcePoint" />
            <mxPoint x="66" y="580" as="targetPoint" />
          </mxGeometry>
        </mxCell>
        <mxCell id="Zqm9SwYbZIe47wMkfVyY-58" value="" style="endArrow=none;html=1;rounded=0;exitX=0.75;exitY=1;exitDx=0;exitDy=0;endFill=0;" parent="1" source="Zqm9SwYbZIe47wMkfVyY-11" edge="1">
          <mxGeometry width="50" height="50" relative="1" as="geometry">
            <mxPoint x="16" y="630" as="sourcePoint" />
            <mxPoint x="-113.4545454545455" y="644.727272727273" as="targetPoint" />
          </mxGeometry>
        </mxCell>
        <mxCell id="Zqm9SwYbZIe47wMkfVyY-60" value="" style="endArrow=none;html=1;rounded=0;exitX=1;exitY=1;exitDx=0;exitDy=0;entryX=0.5;entryY=0;entryDx=0;entryDy=0;endFill=0;" parent="1" target="Zqm9SwYbZIe47wMkfVyY-51" edge="1">
          <mxGeometry width="50" height="50" relative="1" as="geometry">
            <mxPoint x="-54" y="675.0000000000002" as="sourcePoint" />
            <mxPoint x="66" y="580" as="targetPoint" />
          </mxGeometry>
        </mxCell>
        <mxCell id="Zqm9SwYbZIe47wMkfVyY-61" value="Tempat_meja" style="ellipse;whiteSpace=wrap;html=1;align=center;" parent="1" vertex="1">
          <mxGeometry x="326" y="280" width="100" height="40" as="geometry" />
        </mxCell>
        <mxCell id="Zqm9SwYbZIe47wMkfVyY-62" value="" style="endArrow=none;html=1;rounded=0;exitX=1;exitY=0.5;exitDx=0;exitDy=0;entryX=0;entryY=0.5;entryDx=0;entryDy=0;endFill=0;" parent="1" source="Zqm9SwYbZIe47wMkfVyY-39" target="Zqm9SwYbZIe47wMkfVyY-61" edge="1">
          <mxGeometry width="50" height="50" relative="1" as="geometry">
            <mxPoint x="26" y="510" as="sourcePoint" />
            <mxPoint x="76" y="460" as="targetPoint" />
          </mxGeometry>
        </mxCell>
        <mxCell id="Zqm9SwYbZIe47wMkfVyY-63" value="M" style="text;html=1;align=center;verticalAlign=middle;resizable=0;points=[];autosize=1;strokeColor=none;fillColor=none;" parent="1" vertex="1">
          <mxGeometry x="-199" y="535" width="30" height="30" as="geometry" />
        </mxCell>
        <mxCell id="Zqm9SwYbZIe47wMkfVyY-64" value="N" style="text;html=1;align=center;verticalAlign=middle;resizable=0;points=[];autosize=1;strokeColor=none;fillColor=none;" parent="1" vertex="1">
          <mxGeometry x="141" y="538" width="30" height="30" as="geometry" />
        </mxCell>
        <mxCell id="Zqm9SwYbZIe47wMkfVyY-65" value="1" style="text;html=1;align=center;verticalAlign=middle;resizable=0;points=[];autosize=1;strokeColor=none;fillColor=none;" parent="1" vertex="1">
          <mxGeometry x="-275" y="318" width="30" height="30" as="geometry" />
        </mxCell>
        <mxCell id="Zqm9SwYbZIe47wMkfVyY-66" value="M" style="text;html=1;align=center;verticalAlign=middle;resizable=0;points=[];autosize=1;strokeColor=none;fillColor=none;" parent="1" vertex="1">
          <mxGeometry x="-275" y="520" width="30" height="30" as="geometry" />
        </mxCell>
        <mxCell id="Zqm9SwYbZIe47wMkfVyY-67" value="Barista" style="shape=table;startSize=30;container=1;collapsible=1;childLayout=tableLayout;fixedRows=1;rowLines=0;fontStyle=1;align=center;resizeLast=1;html=1;" parent="1" vertex="1">
          <mxGeometry x="-630" y="1050" width="180" height="150.00000000000023" as="geometry" />
        </mxCell>
        <mxCell id="Zqm9SwYbZIe47wMkfVyY-68" value="" style="shape=tableRow;horizontal=0;startSize=0;swimlaneHead=0;swimlaneBody=0;fillColor=none;collapsible=0;dropTarget=0;points=[[0,0.5],[1,0.5]];portConstraint=eastwest;top=0;left=0;right=0;bottom=1;" parent="Zqm9SwYbZIe47wMkfVyY-67" vertex="1">
          <mxGeometry y="30" width="180" height="30" as="geometry" />
        </mxCell>
        <mxCell id="Zqm9SwYbZIe47wMkfVyY-69" value="PK" style="shape=partialRectangle;connectable=0;fillColor=none;top=0;left=0;bottom=0;right=0;fontStyle=1;overflow=hidden;whiteSpace=wrap;html=1;" parent="Zqm9SwYbZIe47wMkfVyY-68" vertex="1">
          <mxGeometry width="30" height="30" as="geometry">
            <mxRectangle width="30" height="30" as="alternateBounds" />
          </mxGeometry>
        </mxCell>
        <mxCell id="Zqm9SwYbZIe47wMkfVyY-70" value="No_barista" style="shape=partialRectangle;connectable=0;fillColor=none;top=0;left=0;bottom=0;right=0;align=left;spacingLeft=6;fontStyle=5;overflow=hidden;whiteSpace=wrap;html=1;" parent="Zqm9SwYbZIe47wMkfVyY-68" vertex="1">
          <mxGeometry x="30" width="150" height="30" as="geometry">
            <mxRectangle width="150" height="30" as="alternateBounds" />
          </mxGeometry>
        </mxCell>
        <mxCell id="Zqm9SwYbZIe47wMkfVyY-71" value="" style="shape=tableRow;horizontal=0;startSize=0;swimlaneHead=0;swimlaneBody=0;fillColor=none;collapsible=0;dropTarget=0;points=[[0,0.5],[1,0.5]];portConstraint=eastwest;top=0;left=0;right=0;bottom=0;" parent="Zqm9SwYbZIe47wMkfVyY-67" vertex="1">
          <mxGeometry y="60" width="180" height="30" as="geometry" />
        </mxCell>
        <mxCell id="Zqm9SwYbZIe47wMkfVyY-72" value="" style="shape=partialRectangle;connectable=0;fillColor=none;top=0;left=0;bottom=0;right=0;editable=1;overflow=hidden;whiteSpace=wrap;html=1;" parent="Zqm9SwYbZIe47wMkfVyY-71" vertex="1">
          <mxGeometry width="30" height="30" as="geometry">
            <mxRectangle width="30" height="30" as="alternateBounds" />
          </mxGeometry>
        </mxCell>
        <mxCell id="Zqm9SwYbZIe47wMkfVyY-73" value="Nama_barista" style="shape=partialRectangle;connectable=0;fillColor=none;top=0;left=0;bottom=0;right=0;align=left;spacingLeft=6;overflow=hidden;whiteSpace=wrap;html=1;" parent="Zqm9SwYbZIe47wMkfVyY-71" vertex="1">
          <mxGeometry x="30" width="150" height="30" as="geometry">
            <mxRectangle width="150" height="30" as="alternateBounds" />
          </mxGeometry>
        </mxCell>
        <mxCell id="Zqm9SwYbZIe47wMkfVyY-74" value="" style="shape=tableRow;horizontal=0;startSize=0;swimlaneHead=0;swimlaneBody=0;fillColor=none;collapsible=0;dropTarget=0;points=[[0,0.5],[1,0.5]];portConstraint=eastwest;top=0;left=0;right=0;bottom=0;" parent="Zqm9SwYbZIe47wMkfVyY-67" vertex="1">
          <mxGeometry y="90" width="180" height="30" as="geometry" />
        </mxCell>
        <mxCell id="Zqm9SwYbZIe47wMkfVyY-75" value="" style="shape=partialRectangle;connectable=0;fillColor=none;top=0;left=0;bottom=0;right=0;editable=1;overflow=hidden;whiteSpace=wrap;html=1;" parent="Zqm9SwYbZIe47wMkfVyY-74" vertex="1">
          <mxGeometry width="30" height="30" as="geometry">
            <mxRectangle width="30" height="30" as="alternateBounds" />
          </mxGeometry>
        </mxCell>
        <mxCell id="Zqm9SwYbZIe47wMkfVyY-76" value="Id_barista" style="shape=partialRectangle;connectable=0;fillColor=none;top=0;left=0;bottom=0;right=0;align=left;spacingLeft=6;overflow=hidden;whiteSpace=wrap;html=1;" parent="Zqm9SwYbZIe47wMkfVyY-74" vertex="1">
          <mxGeometry x="30" width="150" height="30" as="geometry">
            <mxRectangle width="150" height="30" as="alternateBounds" />
          </mxGeometry>
        </mxCell>
        <mxCell id="Zqm9SwYbZIe47wMkfVyY-77" value="" style="shape=tableRow;horizontal=0;startSize=0;swimlaneHead=0;swimlaneBody=0;fillColor=none;collapsible=0;dropTarget=0;points=[[0,0.5],[1,0.5]];portConstraint=eastwest;top=0;left=0;right=0;bottom=0;" parent="Zqm9SwYbZIe47wMkfVyY-67" vertex="1">
          <mxGeometry y="120" width="180" height="30" as="geometry" />
        </mxCell>
        <mxCell id="Zqm9SwYbZIe47wMkfVyY-78" value="" style="shape=partialRectangle;connectable=0;fillColor=none;top=0;left=0;bottom=0;right=0;editable=1;overflow=hidden;whiteSpace=wrap;html=1;" parent="Zqm9SwYbZIe47wMkfVyY-77" vertex="1">
          <mxGeometry width="30" height="30" as="geometry">
            <mxRectangle width="30" height="30" as="alternateBounds" />
          </mxGeometry>
        </mxCell>
        <mxCell id="Zqm9SwYbZIe47wMkfVyY-79" value="" style="shape=partialRectangle;connectable=0;fillColor=none;top=0;left=0;bottom=0;right=0;align=left;spacingLeft=6;overflow=hidden;whiteSpace=wrap;html=1;" parent="Zqm9SwYbZIe47wMkfVyY-77" vertex="1">
          <mxGeometry x="30" width="150" height="30" as="geometry">
            <mxRectangle width="150" height="30" as="alternateBounds" />
          </mxGeometry>
        </mxCell>
        <mxCell id="Zqm9SwYbZIe47wMkfVyY-80" value="Nama_menu" style="ellipse;whiteSpace=wrap;html=1;align=center;" parent="1" vertex="1">
          <mxGeometry x="20" y="880" width="130" height="65" as="geometry" />
        </mxCell>
        <mxCell id="Zqm9SwYbZIe47wMkfVyY-81" value="" style="endArrow=none;html=1;rounded=0;exitX=0.75;exitY=1;exitDx=0;exitDy=0;endFill=0;entryX=0.315;entryY=0.07;entryDx=0;entryDy=0;entryPerimeter=0;" parent="1" source="Zqm9SwYbZIe47wMkfVyY-51" target="Zqm9SwYbZIe47wMkfVyY-80" edge="1">
          <mxGeometry width="50" height="50" relative="1" as="geometry">
            <mxPoint x="-30" y="1140" as="sourcePoint" />
            <mxPoint x="70" y="870" as="targetPoint" />
          </mxGeometry>
        </mxCell>
        <mxCell id="Zqm9SwYbZIe47wMkfVyY-82" value="Varian_menu" style="ellipse;whiteSpace=wrap;html=1;align=center;" parent="1" vertex="1">
          <mxGeometry x="300" y="480" width="100" height="40" as="geometry" />
        </mxCell>
        <mxCell id="Zqm9SwYbZIe47wMkfVyY-83" value="" style="endArrow=none;html=1;rounded=0;exitX=1;exitY=0;exitDx=0;exitDy=0;entryX=0;entryY=1;entryDx=0;entryDy=0;endFill=0;" parent="1" source="Zqm9SwYbZIe47wMkfVyY-21" target="Zqm9SwYbZIe47wMkfVyY-82" edge="1">
          <mxGeometry width="50" height="50" relative="1" as="geometry">
            <mxPoint x="-30" y="560" as="sourcePoint" />
            <mxPoint x="20" y="510" as="targetPoint" />
          </mxGeometry>
        </mxCell>
        <mxCell id="Zqm9SwYbZIe47wMkfVyY-84" value="Pelanggan" style="shape=table;startSize=30;container=1;collapsible=1;childLayout=tableLayout;fixedRows=1;rowLines=0;fontStyle=1;align=center;resizeLast=1;html=1;" parent="1" vertex="1">
          <mxGeometry x="-364" y="1200" width="180" height="150" as="geometry" />
        </mxCell>
        <mxCell id="Zqm9SwYbZIe47wMkfVyY-85" value="" style="shape=tableRow;horizontal=0;startSize=0;swimlaneHead=0;swimlaneBody=0;fillColor=none;collapsible=0;dropTarget=0;points=[[0,0.5],[1,0.5]];portConstraint=eastwest;top=0;left=0;right=0;bottom=1;" parent="Zqm9SwYbZIe47wMkfVyY-84" vertex="1">
          <mxGeometry y="30" width="180" height="30" as="geometry" />
        </mxCell>
        <mxCell id="Zqm9SwYbZIe47wMkfVyY-86" value="PK" style="shape=partialRectangle;connectable=0;fillColor=none;top=0;left=0;bottom=0;right=0;fontStyle=1;overflow=hidden;whiteSpace=wrap;html=1;" parent="Zqm9SwYbZIe47wMkfVyY-85" vertex="1">
          <mxGeometry width="30" height="30" as="geometry">
            <mxRectangle width="30" height="30" as="alternateBounds" />
          </mxGeometry>
        </mxCell>
        <mxCell id="Zqm9SwYbZIe47wMkfVyY-87" value="No_pesanan" style="shape=partialRectangle;connectable=0;fillColor=none;top=0;left=0;bottom=0;right=0;align=left;spacingLeft=6;fontStyle=5;overflow=hidden;whiteSpace=wrap;html=1;" parent="Zqm9SwYbZIe47wMkfVyY-85" vertex="1">
          <mxGeometry x="30" width="150" height="30" as="geometry">
            <mxRectangle width="150" height="30" as="alternateBounds" />
          </mxGeometry>
        </mxCell>
        <mxCell id="Zqm9SwYbZIe47wMkfVyY-88" value="" style="shape=tableRow;horizontal=0;startSize=0;swimlaneHead=0;swimlaneBody=0;fillColor=none;collapsible=0;dropTarget=0;points=[[0,0.5],[1,0.5]];portConstraint=eastwest;top=0;left=0;right=0;bottom=0;" parent="Zqm9SwYbZIe47wMkfVyY-84" vertex="1">
          <mxGeometry y="60" width="180" height="30" as="geometry" />
        </mxCell>
        <mxCell id="Zqm9SwYbZIe47wMkfVyY-89" value="" style="shape=partialRectangle;connectable=0;fillColor=none;top=0;left=0;bottom=0;right=0;editable=1;overflow=hidden;whiteSpace=wrap;html=1;" parent="Zqm9SwYbZIe47wMkfVyY-88" vertex="1">
          <mxGeometry width="30" height="30" as="geometry">
            <mxRectangle width="30" height="30" as="alternateBounds" />
          </mxGeometry>
        </mxCell>
        <mxCell id="Zqm9SwYbZIe47wMkfVyY-90" value="Nama_pelanggan" style="shape=partialRectangle;connectable=0;fillColor=none;top=0;left=0;bottom=0;right=0;align=left;spacingLeft=6;overflow=hidden;whiteSpace=wrap;html=1;" parent="Zqm9SwYbZIe47wMkfVyY-88" vertex="1">
          <mxGeometry x="30" width="150" height="30" as="geometry">
            <mxRectangle width="150" height="30" as="alternateBounds" />
          </mxGeometry>
        </mxCell>
        <mxCell id="Zqm9SwYbZIe47wMkfVyY-91" value="" style="shape=tableRow;horizontal=0;startSize=0;swimlaneHead=0;swimlaneBody=0;fillColor=none;collapsible=0;dropTarget=0;points=[[0,0.5],[1,0.5]];portConstraint=eastwest;top=0;left=0;right=0;bottom=0;" parent="Zqm9SwYbZIe47wMkfVyY-84" vertex="1">
          <mxGeometry y="90" width="180" height="30" as="geometry" />
        </mxCell>
        <mxCell id="Zqm9SwYbZIe47wMkfVyY-92" value="" style="shape=partialRectangle;connectable=0;fillColor=none;top=0;left=0;bottom=0;right=0;editable=1;overflow=hidden;whiteSpace=wrap;html=1;" parent="Zqm9SwYbZIe47wMkfVyY-91" vertex="1">
          <mxGeometry width="30" height="30" as="geometry">
            <mxRectangle width="30" height="30" as="alternateBounds" />
          </mxGeometry>
        </mxCell>
        <mxCell id="Zqm9SwYbZIe47wMkfVyY-93" value="No_telp" style="shape=partialRectangle;connectable=0;fillColor=none;top=0;left=0;bottom=0;right=0;align=left;spacingLeft=6;overflow=hidden;whiteSpace=wrap;html=1;" parent="Zqm9SwYbZIe47wMkfVyY-91" vertex="1">
          <mxGeometry x="30" width="150" height="30" as="geometry">
            <mxRectangle width="150" height="30" as="alternateBounds" />
          </mxGeometry>
        </mxCell>
        <mxCell id="Zqm9SwYbZIe47wMkfVyY-94" value="" style="shape=tableRow;horizontal=0;startSize=0;swimlaneHead=0;swimlaneBody=0;fillColor=none;collapsible=0;dropTarget=0;points=[[0,0.5],[1,0.5]];portConstraint=eastwest;top=0;left=0;right=0;bottom=0;" parent="Zqm9SwYbZIe47wMkfVyY-84" vertex="1">
          <mxGeometry y="120" width="180" height="30" as="geometry" />
        </mxCell>
        <mxCell id="Zqm9SwYbZIe47wMkfVyY-95" value="" style="shape=partialRectangle;connectable=0;fillColor=none;top=0;left=0;bottom=0;right=0;editable=1;overflow=hidden;whiteSpace=wrap;html=1;" parent="Zqm9SwYbZIe47wMkfVyY-94" vertex="1">
          <mxGeometry width="30" height="30" as="geometry">
            <mxRectangle width="30" height="30" as="alternateBounds" />
          </mxGeometry>
        </mxCell>
        <mxCell id="Zqm9SwYbZIe47wMkfVyY-96" value="Id_barista" style="shape=partialRectangle;connectable=0;fillColor=none;top=0;left=0;bottom=0;right=0;align=left;spacingLeft=6;overflow=hidden;whiteSpace=wrap;html=1;" parent="Zqm9SwYbZIe47wMkfVyY-94" vertex="1">
          <mxGeometry x="30" width="150" height="30" as="geometry">
            <mxRectangle width="150" height="30" as="alternateBounds" />
          </mxGeometry>
        </mxCell>
        <mxCell id="Zqm9SwYbZIe47wMkfVyY-97" value="Transaksi" style="shape=table;startSize=30;container=1;collapsible=1;childLayout=tableLayout;fixedRows=1;rowLines=0;fontStyle=1;align=center;resizeLast=1;html=1;" parent="1" vertex="1">
          <mxGeometry x="-94" y="980" width="180" height="240.0000000000009" as="geometry" />
        </mxCell>
        <mxCell id="Zqm9SwYbZIe47wMkfVyY-98" value="" style="shape=tableRow;horizontal=0;startSize=0;swimlaneHead=0;swimlaneBody=0;fillColor=none;collapsible=0;dropTarget=0;points=[[0,0.5],[1,0.5]];portConstraint=eastwest;top=0;left=0;right=0;bottom=1;" parent="Zqm9SwYbZIe47wMkfVyY-97" vertex="1">
          <mxGeometry y="30" width="180" height="30" as="geometry" />
        </mxCell>
        <mxCell id="Zqm9SwYbZIe47wMkfVyY-99" value="PK" style="shape=partialRectangle;connectable=0;fillColor=none;top=0;left=0;bottom=0;right=0;fontStyle=1;overflow=hidden;whiteSpace=wrap;html=1;" parent="Zqm9SwYbZIe47wMkfVyY-98" vertex="1">
          <mxGeometry width="30" height="30" as="geometry">
            <mxRectangle width="30" height="30" as="alternateBounds" />
          </mxGeometry>
        </mxCell>
        <mxCell id="Zqm9SwYbZIe47wMkfVyY-100" value="No_transaksi" style="shape=partialRectangle;connectable=0;fillColor=none;top=0;left=0;bottom=0;right=0;align=left;spacingLeft=6;fontStyle=5;overflow=hidden;whiteSpace=wrap;html=1;" parent="Zqm9SwYbZIe47wMkfVyY-98" vertex="1">
          <mxGeometry x="30" width="150" height="30" as="geometry">
            <mxRectangle width="150" height="30" as="alternateBounds" />
          </mxGeometry>
        </mxCell>
        <mxCell id="Zqm9SwYbZIe47wMkfVyY-101" value="" style="shape=tableRow;horizontal=0;startSize=0;swimlaneHead=0;swimlaneBody=0;fillColor=none;collapsible=0;dropTarget=0;points=[[0,0.5],[1,0.5]];portConstraint=eastwest;top=0;left=0;right=0;bottom=0;" parent="Zqm9SwYbZIe47wMkfVyY-97" vertex="1">
          <mxGeometry y="60" width="180" height="30" as="geometry" />
        </mxCell>
        <mxCell id="Zqm9SwYbZIe47wMkfVyY-102" value="" style="shape=partialRectangle;connectable=0;fillColor=none;top=0;left=0;bottom=0;right=0;editable=1;overflow=hidden;whiteSpace=wrap;html=1;" parent="Zqm9SwYbZIe47wMkfVyY-101" vertex="1">
          <mxGeometry width="30" height="30" as="geometry">
            <mxRectangle width="30" height="30" as="alternateBounds" />
          </mxGeometry>
        </mxCell>
        <mxCell id="Zqm9SwYbZIe47wMkfVyY-103" value="Id_transaksi" style="shape=partialRectangle;connectable=0;fillColor=none;top=0;left=0;bottom=0;right=0;align=left;spacingLeft=6;overflow=hidden;whiteSpace=wrap;html=1;" parent="Zqm9SwYbZIe47wMkfVyY-101" vertex="1">
          <mxGeometry x="30" width="150" height="30" as="geometry">
            <mxRectangle width="150" height="30" as="alternateBounds" />
          </mxGeometry>
        </mxCell>
        <mxCell id="Zqm9SwYbZIe47wMkfVyY-104" value="" style="shape=tableRow;horizontal=0;startSize=0;swimlaneHead=0;swimlaneBody=0;fillColor=none;collapsible=0;dropTarget=0;points=[[0,0.5],[1,0.5]];portConstraint=eastwest;top=0;left=0;right=0;bottom=0;" parent="Zqm9SwYbZIe47wMkfVyY-97" vertex="1">
          <mxGeometry y="90" width="180" height="30" as="geometry" />
        </mxCell>
        <mxCell id="Zqm9SwYbZIe47wMkfVyY-105" value="" style="shape=partialRectangle;connectable=0;fillColor=none;top=0;left=0;bottom=0;right=0;editable=1;overflow=hidden;whiteSpace=wrap;html=1;" parent="Zqm9SwYbZIe47wMkfVyY-104" vertex="1">
          <mxGeometry width="30" height="30" as="geometry">
            <mxRectangle width="30" height="30" as="alternateBounds" />
          </mxGeometry>
        </mxCell>
        <mxCell id="Zqm9SwYbZIe47wMkfVyY-106" value="Nota_transaksi" style="shape=partialRectangle;connectable=0;fillColor=none;top=0;left=0;bottom=0;right=0;align=left;spacingLeft=6;overflow=hidden;whiteSpace=wrap;html=1;" parent="Zqm9SwYbZIe47wMkfVyY-104" vertex="1">
          <mxGeometry x="30" width="150" height="30" as="geometry">
            <mxRectangle width="150" height="30" as="alternateBounds" />
          </mxGeometry>
        </mxCell>
        <mxCell id="Zqm9SwYbZIe47wMkfVyY-107" value="" style="shape=tableRow;horizontal=0;startSize=0;swimlaneHead=0;swimlaneBody=0;fillColor=none;collapsible=0;dropTarget=0;points=[[0,0.5],[1,0.5]];portConstraint=eastwest;top=0;left=0;right=0;bottom=0;" parent="Zqm9SwYbZIe47wMkfVyY-97" vertex="1">
          <mxGeometry y="120" width="180" height="40" as="geometry" />
        </mxCell>
        <mxCell id="Zqm9SwYbZIe47wMkfVyY-108" value="" style="shape=partialRectangle;connectable=0;fillColor=none;top=0;left=0;bottom=0;right=0;editable=1;overflow=hidden;whiteSpace=wrap;html=1;" parent="Zqm9SwYbZIe47wMkfVyY-107" vertex="1">
          <mxGeometry width="30" height="40" as="geometry">
            <mxRectangle width="30" height="40" as="alternateBounds" />
          </mxGeometry>
        </mxCell>
        <mxCell id="Zqm9SwYbZIe47wMkfVyY-109" value="Nama_menu" style="shape=partialRectangle;connectable=0;fillColor=none;top=0;left=0;bottom=0;right=0;align=left;spacingLeft=6;overflow=hidden;whiteSpace=wrap;html=1;" parent="Zqm9SwYbZIe47wMkfVyY-107" vertex="1">
          <mxGeometry x="30" width="150" height="40" as="geometry">
            <mxRectangle width="150" height="40" as="alternateBounds" />
          </mxGeometry>
        </mxCell>
        <mxCell id="Zqm9SwYbZIe47wMkfVyY-138" value="" style="shape=tableRow;horizontal=0;startSize=0;swimlaneHead=0;swimlaneBody=0;fillColor=none;collapsible=0;dropTarget=0;points=[[0,0.5],[1,0.5]];portConstraint=eastwest;top=0;left=0;right=0;bottom=0;" parent="Zqm9SwYbZIe47wMkfVyY-97" vertex="1">
          <mxGeometry y="160" width="180" height="40" as="geometry" />
        </mxCell>
        <mxCell id="Zqm9SwYbZIe47wMkfVyY-139" value="" style="shape=partialRectangle;connectable=0;fillColor=none;top=0;left=0;bottom=0;right=0;editable=1;overflow=hidden;whiteSpace=wrap;html=1;" parent="Zqm9SwYbZIe47wMkfVyY-138" vertex="1">
          <mxGeometry width="30" height="40" as="geometry">
            <mxRectangle width="30" height="40" as="alternateBounds" />
          </mxGeometry>
        </mxCell>
        <mxCell id="Zqm9SwYbZIe47wMkfVyY-140" value="Nama_pelanggan" style="shape=partialRectangle;connectable=0;fillColor=none;top=0;left=0;bottom=0;right=0;align=left;spacingLeft=6;overflow=hidden;whiteSpace=wrap;html=1;" parent="Zqm9SwYbZIe47wMkfVyY-138" vertex="1">
          <mxGeometry x="30" width="150" height="40" as="geometry">
            <mxRectangle width="150" height="40" as="alternateBounds" />
          </mxGeometry>
        </mxCell>
        <mxCell id="96IkyCPamWyzYyhUpTWO-1" value="" style="shape=tableRow;horizontal=0;startSize=0;swimlaneHead=0;swimlaneBody=0;fillColor=none;collapsible=0;dropTarget=0;points=[[0,0.5],[1,0.5]];portConstraint=eastwest;top=0;left=0;right=0;bottom=0;" parent="Zqm9SwYbZIe47wMkfVyY-97" vertex="1">
          <mxGeometry y="200" width="180" height="40" as="geometry" />
        </mxCell>
        <mxCell id="96IkyCPamWyzYyhUpTWO-2" value="" style="shape=partialRectangle;connectable=0;fillColor=none;top=0;left=0;bottom=0;right=0;editable=1;overflow=hidden;whiteSpace=wrap;html=1;" parent="96IkyCPamWyzYyhUpTWO-1" vertex="1">
          <mxGeometry width="30" height="40" as="geometry">
            <mxRectangle width="30" height="40" as="alternateBounds" />
          </mxGeometry>
        </mxCell>
        <mxCell id="96IkyCPamWyzYyhUpTWO-3" value="No_meja" style="shape=partialRectangle;connectable=0;fillColor=none;top=0;left=0;bottom=0;right=0;align=left;spacingLeft=6;overflow=hidden;whiteSpace=wrap;html=1;" parent="96IkyCPamWyzYyhUpTWO-1" vertex="1">
          <mxGeometry x="30" width="150" height="40" as="geometry">
            <mxRectangle width="150" height="40" as="alternateBounds" />
          </mxGeometry>
        </mxCell>
        <mxCell id="Zqm9SwYbZIe47wMkfVyY-110" value="Menu" style="shape=table;startSize=30;container=1;collapsible=1;childLayout=tableLayout;fixedRows=1;rowLines=0;fontStyle=1;align=center;resizeLast=1;html=1;" parent="1" vertex="1">
          <mxGeometry x="186" y="1240" width="180" height="180" as="geometry" />
        </mxCell>
        <mxCell id="Zqm9SwYbZIe47wMkfVyY-111" value="" style="shape=tableRow;horizontal=0;startSize=0;swimlaneHead=0;swimlaneBody=0;fillColor=none;collapsible=0;dropTarget=0;points=[[0,0.5],[1,0.5]];portConstraint=eastwest;top=0;left=0;right=0;bottom=1;" parent="Zqm9SwYbZIe47wMkfVyY-110" vertex="1">
          <mxGeometry y="30" width="180" height="30" as="geometry" />
        </mxCell>
        <mxCell id="Zqm9SwYbZIe47wMkfVyY-112" value="PK" style="shape=partialRectangle;connectable=0;fillColor=none;top=0;left=0;bottom=0;right=0;fontStyle=1;overflow=hidden;whiteSpace=wrap;html=1;" parent="Zqm9SwYbZIe47wMkfVyY-111" vertex="1">
          <mxGeometry width="30" height="30" as="geometry">
            <mxRectangle width="30" height="30" as="alternateBounds" />
          </mxGeometry>
        </mxCell>
        <mxCell id="Zqm9SwYbZIe47wMkfVyY-113" value="Id_menu" style="shape=partialRectangle;connectable=0;fillColor=none;top=0;left=0;bottom=0;right=0;align=left;spacingLeft=6;fontStyle=5;overflow=hidden;whiteSpace=wrap;html=1;" parent="Zqm9SwYbZIe47wMkfVyY-111" vertex="1">
          <mxGeometry x="30" width="150" height="30" as="geometry">
            <mxRectangle width="150" height="30" as="alternateBounds" />
          </mxGeometry>
        </mxCell>
        <mxCell id="Zqm9SwYbZIe47wMkfVyY-114" value="" style="shape=tableRow;horizontal=0;startSize=0;swimlaneHead=0;swimlaneBody=0;fillColor=none;collapsible=0;dropTarget=0;points=[[0,0.5],[1,0.5]];portConstraint=eastwest;top=0;left=0;right=0;bottom=0;" parent="Zqm9SwYbZIe47wMkfVyY-110" vertex="1">
          <mxGeometry y="60" width="180" height="30" as="geometry" />
        </mxCell>
        <mxCell id="Zqm9SwYbZIe47wMkfVyY-115" value="" style="shape=partialRectangle;connectable=0;fillColor=none;top=0;left=0;bottom=0;right=0;editable=1;overflow=hidden;whiteSpace=wrap;html=1;" parent="Zqm9SwYbZIe47wMkfVyY-114" vertex="1">
          <mxGeometry width="30" height="30" as="geometry">
            <mxRectangle width="30" height="30" as="alternateBounds" />
          </mxGeometry>
        </mxCell>
        <mxCell id="Zqm9SwYbZIe47wMkfVyY-116" value="Nama_menu" style="shape=partialRectangle;connectable=0;fillColor=none;top=0;left=0;bottom=0;right=0;align=left;spacingLeft=6;overflow=hidden;whiteSpace=wrap;html=1;" parent="Zqm9SwYbZIe47wMkfVyY-114" vertex="1">
          <mxGeometry x="30" width="150" height="30" as="geometry">
            <mxRectangle width="150" height="30" as="alternateBounds" />
          </mxGeometry>
        </mxCell>
        <mxCell id="Zqm9SwYbZIe47wMkfVyY-117" value="" style="shape=tableRow;horizontal=0;startSize=0;swimlaneHead=0;swimlaneBody=0;fillColor=none;collapsible=0;dropTarget=0;points=[[0,0.5],[1,0.5]];portConstraint=eastwest;top=0;left=0;right=0;bottom=0;" parent="Zqm9SwYbZIe47wMkfVyY-110" vertex="1">
          <mxGeometry y="90" width="180" height="30" as="geometry" />
        </mxCell>
        <mxCell id="Zqm9SwYbZIe47wMkfVyY-118" value="" style="shape=partialRectangle;connectable=0;fillColor=none;top=0;left=0;bottom=0;right=0;editable=1;overflow=hidden;whiteSpace=wrap;html=1;" parent="Zqm9SwYbZIe47wMkfVyY-117" vertex="1">
          <mxGeometry width="30" height="30" as="geometry">
            <mxRectangle width="30" height="30" as="alternateBounds" />
          </mxGeometry>
        </mxCell>
        <mxCell id="Zqm9SwYbZIe47wMkfVyY-119" value="Harga_menu" style="shape=partialRectangle;connectable=0;fillColor=none;top=0;left=0;bottom=0;right=0;align=left;spacingLeft=6;overflow=hidden;whiteSpace=wrap;html=1;" parent="Zqm9SwYbZIe47wMkfVyY-117" vertex="1">
          <mxGeometry x="30" width="150" height="30" as="geometry">
            <mxRectangle width="150" height="30" as="alternateBounds" />
          </mxGeometry>
        </mxCell>
        <mxCell id="Zqm9SwYbZIe47wMkfVyY-120" value="" style="shape=tableRow;horizontal=0;startSize=0;swimlaneHead=0;swimlaneBody=0;fillColor=none;collapsible=0;dropTarget=0;points=[[0,0.5],[1,0.5]];portConstraint=eastwest;top=0;left=0;right=0;bottom=0;" parent="Zqm9SwYbZIe47wMkfVyY-110" vertex="1">
          <mxGeometry y="120" width="180" height="30" as="geometry" />
        </mxCell>
        <mxCell id="Zqm9SwYbZIe47wMkfVyY-121" value="" style="shape=partialRectangle;connectable=0;fillColor=none;top=0;left=0;bottom=0;right=0;editable=1;overflow=hidden;whiteSpace=wrap;html=1;" parent="Zqm9SwYbZIe47wMkfVyY-120" vertex="1">
          <mxGeometry width="30" height="30" as="geometry">
            <mxRectangle width="30" height="30" as="alternateBounds" />
          </mxGeometry>
        </mxCell>
        <mxCell id="Zqm9SwYbZIe47wMkfVyY-122" value="Jumlah_menu" style="shape=partialRectangle;connectable=0;fillColor=none;top=0;left=0;bottom=0;right=0;align=left;spacingLeft=6;overflow=hidden;whiteSpace=wrap;html=1;" parent="Zqm9SwYbZIe47wMkfVyY-120" vertex="1">
          <mxGeometry x="30" width="150" height="30" as="geometry">
            <mxRectangle width="150" height="30" as="alternateBounds" />
          </mxGeometry>
        </mxCell>
        <mxCell id="Zqm9SwYbZIe47wMkfVyY-150" value="" style="shape=tableRow;horizontal=0;startSize=0;swimlaneHead=0;swimlaneBody=0;fillColor=none;collapsible=0;dropTarget=0;points=[[0,0.5],[1,0.5]];portConstraint=eastwest;top=0;left=0;right=0;bottom=0;" parent="Zqm9SwYbZIe47wMkfVyY-110" vertex="1">
          <mxGeometry y="150" width="180" height="30" as="geometry" />
        </mxCell>
        <mxCell id="Zqm9SwYbZIe47wMkfVyY-151" value="" style="shape=partialRectangle;connectable=0;fillColor=none;top=0;left=0;bottom=0;right=0;editable=1;overflow=hidden;whiteSpace=wrap;html=1;" parent="Zqm9SwYbZIe47wMkfVyY-150" vertex="1">
          <mxGeometry width="30" height="30" as="geometry">
            <mxRectangle width="30" height="30" as="alternateBounds" />
          </mxGeometry>
        </mxCell>
        <mxCell id="Zqm9SwYbZIe47wMkfVyY-152" value="Varian_menu" style="shape=partialRectangle;connectable=0;fillColor=none;top=0;left=0;bottom=0;right=0;align=left;spacingLeft=6;overflow=hidden;whiteSpace=wrap;html=1;" parent="Zqm9SwYbZIe47wMkfVyY-150" vertex="1">
          <mxGeometry x="30" width="150" height="30" as="geometry">
            <mxRectangle width="150" height="30" as="alternateBounds" />
          </mxGeometry>
        </mxCell>
        <mxCell id="Zqm9SwYbZIe47wMkfVyY-123" value="Meja" style="shape=table;startSize=30;container=1;collapsible=1;childLayout=tableLayout;fixedRows=1;rowLines=0;fontStyle=1;align=center;resizeLast=1;html=1;" parent="1" vertex="1">
          <mxGeometry x="196" y="970" width="180" height="170.00000000000023" as="geometry" />
        </mxCell>
        <mxCell id="Zqm9SwYbZIe47wMkfVyY-124" value="" style="shape=tableRow;horizontal=0;startSize=0;swimlaneHead=0;swimlaneBody=0;fillColor=none;collapsible=0;dropTarget=0;points=[[0,0.5],[1,0.5]];portConstraint=eastwest;top=0;left=0;right=0;bottom=1;" parent="Zqm9SwYbZIe47wMkfVyY-123" vertex="1">
          <mxGeometry y="30" width="180" height="30" as="geometry" />
        </mxCell>
        <mxCell id="Zqm9SwYbZIe47wMkfVyY-125" value="PK" style="shape=partialRectangle;connectable=0;fillColor=none;top=0;left=0;bottom=0;right=0;fontStyle=1;overflow=hidden;whiteSpace=wrap;html=1;" parent="Zqm9SwYbZIe47wMkfVyY-124" vertex="1">
          <mxGeometry width="30" height="30" as="geometry">
            <mxRectangle width="30" height="30" as="alternateBounds" />
          </mxGeometry>
        </mxCell>
        <mxCell id="Zqm9SwYbZIe47wMkfVyY-126" value="Id_meja" style="shape=partialRectangle;connectable=0;fillColor=none;top=0;left=0;bottom=0;right=0;align=left;spacingLeft=6;fontStyle=5;overflow=hidden;whiteSpace=wrap;html=1;" parent="Zqm9SwYbZIe47wMkfVyY-124" vertex="1">
          <mxGeometry x="30" width="150" height="30" as="geometry">
            <mxRectangle width="150" height="30" as="alternateBounds" />
          </mxGeometry>
        </mxCell>
        <mxCell id="Zqm9SwYbZIe47wMkfVyY-127" value="" style="shape=tableRow;horizontal=0;startSize=0;swimlaneHead=0;swimlaneBody=0;fillColor=none;collapsible=0;dropTarget=0;points=[[0,0.5],[1,0.5]];portConstraint=eastwest;top=0;left=0;right=0;bottom=0;" parent="Zqm9SwYbZIe47wMkfVyY-123" vertex="1">
          <mxGeometry y="60" width="180" height="30" as="geometry" />
        </mxCell>
        <mxCell id="Zqm9SwYbZIe47wMkfVyY-128" value="" style="shape=partialRectangle;connectable=0;fillColor=none;top=0;left=0;bottom=0;right=0;editable=1;overflow=hidden;whiteSpace=wrap;html=1;" parent="Zqm9SwYbZIe47wMkfVyY-127" vertex="1">
          <mxGeometry width="30" height="30" as="geometry">
            <mxRectangle width="30" height="30" as="alternateBounds" />
          </mxGeometry>
        </mxCell>
        <mxCell id="Zqm9SwYbZIe47wMkfVyY-129" value="No_meja" style="shape=partialRectangle;connectable=0;fillColor=none;top=0;left=0;bottom=0;right=0;align=left;spacingLeft=6;overflow=hidden;whiteSpace=wrap;html=1;" parent="Zqm9SwYbZIe47wMkfVyY-127" vertex="1">
          <mxGeometry x="30" width="150" height="30" as="geometry">
            <mxRectangle width="150" height="30" as="alternateBounds" />
          </mxGeometry>
        </mxCell>
        <mxCell id="Zqm9SwYbZIe47wMkfVyY-130" value="" style="shape=tableRow;horizontal=0;startSize=0;swimlaneHead=0;swimlaneBody=0;fillColor=none;collapsible=0;dropTarget=0;points=[[0,0.5],[1,0.5]];portConstraint=eastwest;top=0;left=0;right=0;bottom=0;" parent="Zqm9SwYbZIe47wMkfVyY-123" vertex="1">
          <mxGeometry y="90" width="180" height="30" as="geometry" />
        </mxCell>
        <mxCell id="Zqm9SwYbZIe47wMkfVyY-131" value="" style="shape=partialRectangle;connectable=0;fillColor=none;top=0;left=0;bottom=0;right=0;editable=1;overflow=hidden;whiteSpace=wrap;html=1;" parent="Zqm9SwYbZIe47wMkfVyY-130" vertex="1">
          <mxGeometry width="30" height="30" as="geometry">
            <mxRectangle width="30" height="30" as="alternateBounds" />
          </mxGeometry>
        </mxCell>
        <mxCell id="Zqm9SwYbZIe47wMkfVyY-132" value="Tempat_meja" style="shape=partialRectangle;connectable=0;fillColor=none;top=0;left=0;bottom=0;right=0;align=left;spacingLeft=6;overflow=hidden;whiteSpace=wrap;html=1;" parent="Zqm9SwYbZIe47wMkfVyY-130" vertex="1">
          <mxGeometry x="30" width="150" height="30" as="geometry">
            <mxRectangle width="150" height="30" as="alternateBounds" />
          </mxGeometry>
        </mxCell>
        <mxCell id="Zqm9SwYbZIe47wMkfVyY-133" value="" style="shape=tableRow;horizontal=0;startSize=0;swimlaneHead=0;swimlaneBody=0;fillColor=none;collapsible=0;dropTarget=0;points=[[0,0.5],[1,0.5]];portConstraint=eastwest;top=0;left=0;right=0;bottom=0;" parent="Zqm9SwYbZIe47wMkfVyY-123" vertex="1">
          <mxGeometry y="120" width="180" height="50" as="geometry" />
        </mxCell>
        <mxCell id="Zqm9SwYbZIe47wMkfVyY-134" value="" style="shape=partialRectangle;connectable=0;fillColor=none;top=0;left=0;bottom=0;right=0;editable=1;overflow=hidden;whiteSpace=wrap;html=1;" parent="Zqm9SwYbZIe47wMkfVyY-133" vertex="1">
          <mxGeometry width="30" height="50" as="geometry">
            <mxRectangle width="30" height="50" as="alternateBounds" />
          </mxGeometry>
        </mxCell>
        <mxCell id="Zqm9SwYbZIe47wMkfVyY-135" value="" style="shape=partialRectangle;connectable=0;fillColor=none;top=0;left=0;bottom=0;right=0;align=left;spacingLeft=6;overflow=hidden;whiteSpace=wrap;html=1;" parent="Zqm9SwYbZIe47wMkfVyY-133" vertex="1">
          <mxGeometry x="30" width="150" height="50" as="geometry">
            <mxRectangle width="150" height="50" as="alternateBounds" />
          </mxGeometry>
        </mxCell>
        <mxCell id="Zqm9SwYbZIe47wMkfVyY-136" value="Nama_pelanggan" style="ellipse;whiteSpace=wrap;html=1;align=center;" parent="1" vertex="1">
          <mxGeometry x="141" y="750" width="109" height="40" as="geometry" />
        </mxCell>
        <mxCell id="Zqm9SwYbZIe47wMkfVyY-137" value="" style="endArrow=none;html=1;rounded=0;exitX=1;exitY=0.25;exitDx=0;exitDy=0;entryX=0;entryY=0.5;entryDx=0;entryDy=0;endFill=0;" parent="1" source="Zqm9SwYbZIe47wMkfVyY-51" target="Zqm9SwYbZIe47wMkfVyY-136" edge="1">
          <mxGeometry width="50" height="50" relative="1" as="geometry">
            <mxPoint x="-50" y="1080" as="sourcePoint" />
            <mxPoint y="1030" as="targetPoint" />
          </mxGeometry>
        </mxCell>
        <mxCell id="Zqm9SwYbZIe47wMkfVyY-141" value="" style="edgeStyle=entityRelationEdgeStyle;fontSize=12;html=1;endArrow=ERmandOne;startArrow=ERmandOne;rounded=0;exitX=1;exitY=0.5;exitDx=0;exitDy=0;endFill=0;entryX=0;entryY=0.5;entryDx=0;entryDy=0;" parent="1" source="Zqm9SwYbZIe47wMkfVyY-74" target="Zqm9SwYbZIe47wMkfVyY-94" edge="1">
          <mxGeometry width="100" height="100" relative="1" as="geometry">
            <mxPoint x="-449.9999999999998" y="1099.9999999999998" as="sourcePoint" />
            <mxPoint x="-354.0000000000002" y="1425" as="targetPoint" />
          </mxGeometry>
        </mxCell>
        <mxCell id="Zqm9SwYbZIe47wMkfVyY-142" value="" style="edgeStyle=entityRelationEdgeStyle;fontSize=12;html=1;endArrow=ERzeroToMany;endFill=1;rounded=0;entryX=0;entryY=0.5;entryDx=0;entryDy=0;" parent="1" target="Zqm9SwYbZIe47wMkfVyY-138" edge="1">
          <mxGeometry width="100" height="100" relative="1" as="geometry">
            <mxPoint x="-184" y="1270" as="sourcePoint" />
            <mxPoint x="-84" y="1170" as="targetPoint" />
            <Array as="points">
              <mxPoint x="-140" y="1230" />
            </Array>
          </mxGeometry>
        </mxCell>
        <mxCell id="Zqm9SwYbZIe47wMkfVyY-143" value="1" style="text;html=1;align=center;verticalAlign=middle;resizable=0;points=[];autosize=1;strokeColor=none;fillColor=none;" parent="1" vertex="1">
          <mxGeometry x="-195" y="298" width="30" height="30" as="geometry" />
        </mxCell>
        <mxCell id="Zqm9SwYbZIe47wMkfVyY-145" value="M" style="text;html=1;align=center;verticalAlign=middle;resizable=0;points=[];autosize=1;strokeColor=none;fillColor=none;" parent="1" vertex="1">
          <mxGeometry x="145" y="298" width="30" height="30" as="geometry" />
        </mxCell>
        <mxCell id="Zqm9SwYbZIe47wMkfVyY-146" value="M" style="text;html=1;align=center;verticalAlign=middle;resizable=0;points=[];autosize=1;strokeColor=none;fillColor=none;" parent="1" vertex="1">
          <mxGeometry x="220" y="520" width="30" height="30" as="geometry" />
        </mxCell>
        <mxCell id="Zqm9SwYbZIe47wMkfVyY-147" value="N" style="text;html=1;align=center;verticalAlign=middle;resizable=0;points=[];autosize=1;strokeColor=none;fillColor=none;" parent="1" vertex="1">
          <mxGeometry x="225" y="318" width="30" height="30" as="geometry" />
        </mxCell>
        <mxCell id="Zqm9SwYbZIe47wMkfVyY-148" value="M" style="text;html=1;align=center;verticalAlign=middle;resizable=0;points=[];autosize=1;strokeColor=none;fillColor=none;" parent="1" vertex="1">
          <mxGeometry x="-235" y="590" width="30" height="30" as="geometry" />
        </mxCell>
        <mxCell id="Zqm9SwYbZIe47wMkfVyY-149" value="N" style="text;html=1;align=center;verticalAlign=middle;resizable=0;points=[];autosize=1;strokeColor=none;fillColor=none;" parent="1" vertex="1">
          <mxGeometry x="-40" y="720" width="30" height="30" as="geometry" />
        </mxCell>
        <mxCell id="Zqm9SwYbZIe47wMkfVyY-153" value="" style="edgeStyle=entityRelationEdgeStyle;fontSize=12;html=1;endArrow=ERzeroToMany;endFill=1;rounded=0;entryX=1;entryY=0.5;entryDx=0;entryDy=0;exitX=0;exitY=0.5;exitDx=0;exitDy=0;" parent="1" source="Zqm9SwYbZIe47wMkfVyY-114" target="Zqm9SwYbZIe47wMkfVyY-107" edge="1">
          <mxGeometry width="100" height="100" relative="1" as="geometry">
            <mxPoint x="130" y="1370" as="sourcePoint" />
            <mxPoint x="70" y="1050" as="targetPoint" />
            <Array as="points">
              <mxPoint x="70" y="1290" />
            </Array>
          </mxGeometry>
        </mxCell>
        <mxCell id="96IkyCPamWyzYyhUpTWO-4" value="" style="edgeStyle=entityRelationEdgeStyle;fontSize=12;html=1;endArrow=ERzeroToMany;endFill=1;rounded=0;exitX=1;exitY=0.5;exitDx=0;exitDy=0;entryX=0;entryY=0.5;entryDx=0;entryDy=0;" parent="1" source="96IkyCPamWyzYyhUpTWO-1" target="Zqm9SwYbZIe47wMkfVyY-127" edge="1">
          <mxGeometry width="100" height="100" relative="1" as="geometry">
            <mxPoint x="130" y="1200" as="sourcePoint" />
            <mxPoint x="230" y="1100" as="targetPoint" />
          </mxGeometry>
        </mxCell>
        <mxCell id="8ncwZWY3sIBFfwRfAsoq-2" value="Pesan" style="shape=associativeEntity;whiteSpace=wrap;html=1;align=center;" vertex="1" parent="1">
          <mxGeometry x="-69" y="530" width="140" height="60" as="geometry" />
        </mxCell>
        <mxCell id="8ncwZWY3sIBFfwRfAsoq-4" value="Lakukan" style="shape=associativeEntity;whiteSpace=wrap;html=1;align=center;" vertex="1" parent="1">
          <mxGeometry x="-169" y="640" width="140" height="60" as="geometry" />
        </mxCell>
        <mxCell id="8ncwZWY3sIBFfwRfAsoq-5" value="Antar" style="shape=associativeEntity;whiteSpace=wrap;html=1;align=center;" vertex="1" parent="1">
          <mxGeometry x="156" y="400" width="140" height="60" as="geometry" />
        </mxCell>
      </root>
    </mxGraphModel>
  </diagram>
</mxfile>
